/* XPM */
static char * exit_xpm[] = {
"40 40 527 2",
"  	c #C8D45D",
". 	c #C1C064",
"+ 	c #B9A36D",
"@ 	c #BFA971",
"# 	c #C3AB75",
"$ 	c #C6A37D",
"% 	c #C7A47D",
"& 	c #C8AA7E",
"* 	c #C7AE7E",
"= 	c #C5B17E",
"- 	c #C5CF5D",
"; 	c #A99E5C",
"> 	c #A7985E",
", 	c #B9A969",
"' 	c #C5B572",
") 	c #C8B773",
"! 	c #C4AA75",
"~ 	c #C39F7B",
"{ 	c #C8A47F",
"] 	c #C8A87E",
"^ 	c #C5AF7D",
"/ 	c #C3B07C",
"( 	c #C0B47A",
"_ 	c #B7B474",
": 	c #AFB370",
"< 	c #ADB26E",
"[ 	c #BFC55D",
"} 	c #ADA35E",
"| 	c #B3A861",
"1 	c #BBAD6A",
"2 	c #A6826A",
"3 	c #A8806A",
"4 	c #BD9777",
"5 	c #CBA680",
"6 	c #CDA981",
"7 	c #C9AA7F",
"8 	c #C6AD7E",
"9 	c #C4AE7D",
"0 	c #BDAF79",
"a 	c #AEB170",
"b 	c #A7AF6D",
"c 	c #AAB66D",
"d 	c #A8BB69",
"e 	c #A2BB65",
"f 	c #9FB963",
"g 	c #C3C860",
"h 	c #B0A064",
"i 	c #A17967",
"j 	c #AB846D",
"k 	c #BD9978",
"l 	c #C4A17C",
"m 	c #C6A47D",
"n 	c #CBAF80",
"o 	c #C7AF7E",
"p 	c #BCAF78",
"q 	c #B1B072",
"r 	c #ACB36F",
"s 	c #A9B56C",
"t 	c #9CB564",
"u 	c #90AE5F",
"v 	c #99B562",
"w 	c #A2BF64",
"x 	c #A2C063",
"y 	c #9EBE62",
"z 	c #B28D71",
"A 	c #C09D7A",
"B 	c #C3A17B",
"C 	c #C8A97E",
"D 	c #CEB182",
"E 	c #CDB481",
"F 	c #BEB37A",
"G 	c #B2B073",
"H 	c #A8AD6E",
"I 	c #9DAC68",
"J 	c #9CB365",
"K 	c #A5BE67",
"L 	c #A7C167",
"M 	c #9DBC62",
"N 	c #8BB05C",
"O 	c #93B45F",
"P 	c #9FBD62",
"Q 	c #A0BE63",
"R 	c #9DBB62",
"S 	c #A68866",
"T 	c #BD9A77",
"U 	c #D0B283",
"V 	c #CAB380",
"W 	c #BEB07A",
"X 	c #B4AD74",
"Y 	c #B4B273",
"Z 	c #A8B66B",
"` 	c #8BAE5D",
" .	c #89AD5C",
"..	c #9BBA62",
"+.	c #B1CA6A",
"@.	c #B3CB6B",
"#.	c #A1BF63",
"$.	c #8CB15D",
"%.	c #9CBB62",
"&.	c #BEBB63",
"*.	c #B89D70",
"=.	c #BCA777",
"-.	c #ADAC71",
";.	c #9CAC68",
">.	c #89A85E",
",.	c #A9C366",
"'.	c #A8C366",
").	c #99B960",
"!.	c #8EB15D",
"~.	c #9AB961",
"{.	c #ADC768",
"].	c #B1CA69",
"^.	c #A1BE63",
"/.	c #8DB15D",
"(.	c #98B761",
"_.	c #A4C064",
":.	c #A6C265",
"<.	c #C8D35D",
"[.	c #BCBF60",
"}.	c #9E9B63",
"|.	c #89A55F",
"1.	c #8EB05F",
"2.	c #87AC5C",
"3.	c #A4BF65",
"4.	c #B4CC6B",
"5.	c #AEC868",
"6.	c #9BBA61",
"7.	c #ADC668",
"8.	c #B0C969",
"9.	c #96B75F",
"0.	c #9EBD62",
"a.	c #C7D25D",
"b.	c #B6C35E",
"c.	c #89A65E",
"d.	c #92B45F",
"e.	c #88AD5C",
"f.	c #9EBC62",
"g.	c #AAC566",
"h.	c #8FB25D",
"i.	c #9DBB63",
"j.	c #B2CA6A",
"k.	c #A1BF64",
"l.	c #A0BE62",
"m.	c #B9C85E",
"n.	c #8AA75F",
"o.	c #94B55F",
"p.	c #A2BE64",
"q.	c #9ABA61",
"r.	c #98B960",
"s.	c #AEC767",
"t.	c #A5BF65",
"u.	c #A6C165",
"v.	c #A3BF64",
"w.	c #8BA75F",
"x.	c #8AAD5C",
"y.	c #A5C066",
"z.	c #B5CC6B",
"A.	c #AFC869",
"B.	c #A0BC63",
"C.	c #8FAC5D",
"D.	c #99A960",
"E.	c #A7A965",
"F.	c #ADA867",
"G.	c #ACA767",
"H.	c #A1BE64",
"I.	c #B0CA69",
"J.	c #ABC767",
"K.	c #91B05D",
"L.	c #9FB762",
"M.	c #B2C368",
"N.	c #B5C16A",
"O.	c #ACAF69",
"P.	c #A5A467",
"Q.	c #B1A573",
"R.	c #C1AD82",
"S.	c #CAB18A",
"T.	c #CBB28B",
"U.	c #88AE5C",
"V.	c #9FBD63",
"W.	c #ADC466",
"X.	c #A8BE63",
"Y.	c #9DB25F",
"Z.	c #9BAA61",
"`.	c #AAAD68",
" +	c #BAB670",
".+	c #C2B879",
"++	c #C8B386",
"@+	c #C9B289",
"#+	c #D1BA93",
"$+	c #DDC5A0",
"%+	c #E3CBA7",
"&+	c #E4CCA8",
"*+	c #8BA65F",
"=+	c #95B25E",
"-+	c #8CA95B",
";+	c #A4B963",
">+	c #B3BB6A",
",+	c #B1B269",
"'+	c #AEAB6B",
")+	c #B5AB76",
"!+	c #C3B184",
"~+	c #CEB88C",
"{+	c #D5BE94",
"]+	c #E0C8A3",
"^+	c #E3CBA6",
"/+	c #E5CDA7",
"(+	c #E7D0A8",
"_+	c #E9D1A9",
":+	c #E9D1AA",
"<+	c #BAC85D",
"[+	c #90A15F",
"}+	c #9FAB61",
"|+	c #9FA162",
"1+	c #B0AD6A",
"2+	c #C3B67C",
"3+	c #C9B685",
"4+	c #CCB78B",
"5+	c #D4BD96",
"6+	c #DEC6A2",
"7+	c #E4CCA7",
"8+	c #E8D0A8",
"9+	c #E5CBA2",
"0+	c #E0C49A",
"a+	c #DDC096",
"b+	c #DDBF95",
"c+	c #C6CD5F",
"d+	c #C4C561",
"e+	c #BABA62",
"f+	c #A49D68",
"g+	c #B8AA75",
"h+	c #C1AB7F",
"i+	c #C8B185",
"j+	c #D7C098",
"k+	c #E1CAA4",
"l+	c #E4CDA8",
"m+	c #E6CFA9",
"n+	c #E8D1AA",
"o+	c #E8D1A9",
"p+	c #E5CCA3",
"q+	c #DEC196",
"r+	c #DCBD93",
"s+	c #D4B38B",
"t+	c #C9A681",
"u+	c #C19D79",
"v+	c #C1BA65",
"w+	c #BB9673",
"x+	c #C1A27B",
"y+	c #C6AA84",
"z+	c #D6BC95",
"A+	c #E2CAA3",
"B+	c #E7D1AA",
"C+	c #E9D4AD",
"D+	c #E3CAA2",
"E+	c #DBBB90",
"F+	c #D5B48B",
"G+	c #C9A680",
"H+	c #C6A27D",
"I+	c #BA9576",
"J+	c #A9816B",
"K+	c #9E7464",
"L+	c #9C7163",
"M+	c #C3B96D",
"N+	c #CFB08D",
"O+	c #E3CBA4",
"P+	c #E5CEA7",
"Q+	c #E8D1AB",
"R+	c #EAD5AE",
"S+	c #EAD4AE",
"T+	c #E2C79F",
"U+	c #DCBD91",
"V+	c #D9B88C",
"W+	c #D4B289",
"X+	c #CEAC83",
"Y+	c #C8A57F",
"Z+	c #BC9878",
"`+	c #A17968",
" @	c #9C7364",
".@	c #9A6F62",
"+@	c #96695F",
"@@	c #93665E",
"#@	c #93655D",
"$@	c #B29271",
"%@	c #D1B594",
"&@	c #E9D3AC",
"*@	c #E3C8A0",
"=@	c #DCBE93",
"-@	c #D3B189",
";@	c #CBA881",
">@	c #C5A07C",
",@	c #B89375",
"'@	c #9F7565",
")@	c #94685F",
"!@	c #93645D",
"~@	c #BCB26A",
"{@	c #C7A785",
"]@	c #DFC297",
"^@	c #DCBF94",
"/@	c #D2B38B",
"(@	c #C5A27D",
"_@	c #B99373",
":@	c #B0876B",
"<@	c #AB8168",
"[@	c #A57A64",
"}@	c #9E715F",
"|@	c #996C5D",
"1@	c #9A6C5D",
"2@	c #9A6B5C",
"3@	c #BEB866",
"4@	c #C4A07D",
"5@	c #C29E7B",
"6@	c #BC9775",
"7@	c #B8906F",
"8@	c #B8906D",
"9@	c #B48A68",
"0@	c #B18564",
"a@	c #B08363",
"b@	c #AF8263",
"c@	c #AE8262",
"d@	c #AE8162",
"e@	c #C4CA60",
"f@	c #C1BF64",
"g@	c #BEB368",
"h@	c #AE866B",
"i@	c #AE8568",
"j@	c #B78D68",
"k@	c #BB9169",
"l@	c #BD9268",
"m@	c #BD9368",
"n@	c #BE9369",
"o@	c #B68D68",
"p@	c #AD8568",
"q@	c #AD866B",
"r@	c #BDB368",
"s@	c #C5CD5E",
"t@	c #B7AC62",
"u@	c #A88064",
"v@	c #B78C66",
"w@	c #BC9167",
"x@	c #BD9267",
"y@	c #BE9268",
"z@	c #A68063",
"A@	c #B6AC62",
"B@	c #C2C85E",
"C@	c #A58062",
"D@	c #B48864",
"E@	c #B98C64",
"F@	c #B88B64",
"G@	c #A48062",
"H@	c #C2C75E",
"I@	c #A78364",
"J@	c #B88C66",
"K@	c #BC9166",
"L@	c #BB9066",
"M@	c #BA8E66",
"N@	c #BB8F66",
"O@	c #BC9066",
"P@	c #C3C85F",
"Q@	c #AC8865",
"R@	c #BE946A",
"S@	c #C2996B",
"T@	c #BB926A",
"U@	c #B68D69",
"V@	c #C0966B",
"W@	c #C3996C",
"X@	c #A88365",
"Y@	c #B88E67",
"Z@	c #B88E69",
"`@	c #AA8166",
" #	c #9E7564",
".#	c #A87F66",
"+#	c #B58B68",
"@#	c #BE9269",
"##	c #BF9368",
"$#	c #BB916A",
"%#	c #B88F69",
"&#	c #B78D69",
"*#	c #B68C69",
"=#	c #C1C75E",
"-#	c #A27C62",
";#	c #AF8362",
">#	c #A37963",
",#	c #936961",
"'#	c #8C615F",
")#	c #8C605F",
"!#	c #A47863",
"~#	c #B28563",
"{#	c #B78963",
"]#	c #B68962",
"^#	c #B28562",
"/#	c #A77C64",
"(#	c #9D7363",
"_#	c #996F61",
":#	c #986D61",
"<#	c #C2C75F",
"[#	c #A78365",
"}#	c #B48A67",
"|#	c #9C7464",
"1#	c #8E6360",
"2#	c #8E615D",
"3#	c #8C5F5E",
"4#	c #8E635F",
"5#	c #A07663",
"6#	c #B58B66",
"7#	c #BA8F67",
"8#	c #AB8164",
"9#	c #976D61",
"0#	c #8F635F",
"a#	c #8E615E",
"b#	c #8E625D",
"c#	c #C2C85F",
"d#	c #AB8765",
"e#	c #916661",
"f#	c #94675E",
"g#	c #92675F",
"h#	c #A37A64",
"i#	c #B99069",
"j#	c #C0966A",
"k#	c #B68C68",
"l#	c #9A7162",
"m#	c #90645F",
"n#	c #8F615D",
"o#	c #8F625D",
"p#	c #A98465",
"q#	c #A07764",
"r#	c #A67E67",
"s#	c #B48B6B",
"t#	c #B1886A",
"u#	c #A67D67",
"v#	c #A97F66",
"w#	c #B18666",
"x#	c #8F6561",
"y#	c #8C605E",
"z#	c #90625D",
"A#	c #91635D",
"B#	c #A68265",
"C#	c #B48966",
"D#	c #AC8164",
"E#	c #BA926F",
"F#	c #C8A277",
"G#	c #C69F76",
"H#	c #B28868",
"I#	c #B58A65",
"J#	c #AC8163",
"K#	c #8C6260",
"L#	c #8C5F5D",
"M#	c #B68C66",
"N#	c #B98E67",
"O#	c #C49B70",
"P#	c #CCA577",
"Q#	c #CBA476",
"R#	c #C39B70",
"S#	c #BC916A",
"T#	c #B98E66",
"U#	c #AD8164",
"V#	c #BC9269",
"W#	c #C2986A",
"X#	c #C69C6E",
"Y#	c #C89F71",
"Z#	c #C89F70",
"`#	c #C3996B",
" $	c #C1966A",
".$	c #B18767",
"+$	c #8D6461",
"@$	c #8D605D",
"#$	c #95665C",
"$$	c #95675C",
"%$	c #AC8667",
"&$	c #BF966B",
"*$	c #BD936B",
"=$	c #B08668",
"-$	c #8E6561",
";$	c #9F715D",
">$	c #A3755D",
",$	c #A3765D",
"'$	c #C4CB5E",
")$	c #B09B64",
"!$	c #A68067",
"~$	c #A77F67",
"{$	c #AA8167",
"]$	c #AB8267",
"^$	c #AA8267",
"/$	c #A88067",
"($	c #A67F67",
"_$	c #A47C67",
":$	c #9C7465",
"<$	c #8D6260",
"[$	c #9E725F",
"}$	c #B58963",
"|$	c #B68963",
"1$	c #C2CB5E",
"2$	c #968660",
"3$	c #825E61",
"4$	c #8E6662",
"5$	c #966D63",
"6$	c #8F6763",
"7$	c #815963",
"8$	c #826362",
"9$	c #8F7B60",
"0$	c #917B60",
"a$	c #987E60",
"b$	c #AA8163",
"c$	c #B98F67",
"d$	c #BE9469",
"e$	c #C1CB5D",
"f$	c #8E7860",
"g$	c #9E7563",
"h$	c #AF8465",
"i$	c #9F7664",
"j$	c #7F5864",
"k$	c #938B62",
"l$	c #C3CC5E",
"m$	c #B29464",
"n$	c #B68B68",
"o$	c #BB9068",
"p$	c #A47D66",
"q$	c #B78E69",
"r$	c #815B65",
"s$	c #948D62",
"t$	c #C7D05D",
"u$	c #B29664",
"v$	c #B78C68",
"w$	c #BE9267",
"x$	c #B9906A",
"y$	c #A88068",
"z$	c #825C65",
"A$	c #BF9469",
"B$	c #C09569",
"                    . + @ # $ % & * = = = = * & % $ # @ + .                     ",
"        - ; > , ' ) ! ~ { ] ^ / ( _ : < < : _ ( / ^ ] { ~ ! ) ' , > ; -         ",
"  [ } | 1 2 3 4 5 6 7 8 9 0 a b c d e f f e d c b a 0 9 8 7 6 5 4 3 2 1 | } [   ",
"g h i j k l m & n o p q r s t u v w x y y x w v u t s r q p o n & m l k j i h g ",
"h z A B C D E F G H I J K L M N O P Q R R Q P O N M L K J I H G F E D C B A z h ",
"S T U V W X Y Z v `  ...+.@.#.$.O P Q %.%.Q P O $.#.@.+... .` v Z Y X W V U T S ",
"&.*.=.-.;.>.v ,.'.).!.~.{.].^./.(._.:.x x :._.(./.^.].{.~.!.).'.,.v >.;.-.=.*.&.",
"<.[.}.|.1.2.3.4.5.6.!.~.7.8.^./.9.P Q 0.0.Q P 9./.^.8.7.~.!.6.5.4.3.2.1.|.}.[.<.",
"  a.b.c.d.e.f.{.g.).h.i.j.4.k./.9.l.#.0.0.#.l.9./.k.4.j.i.h.).g.{.f.e.d.c.b.a.  ",
"    m.n.o. .p.j.{.q.!.r.g.s.Q /.(.t.u.v.v.u.t.(./.Q s.g.r.!.q.{.j.p. .o.n.m.    ",
"    m.w.o.x.y.z.A.6.h...{.A.B.C.D.E.F.G.G.F.E.D.C.B.A.{...h.6.A.z.y.x.o.w.m.    ",
"    m.w.o. .H.I.J.q.K.L.M.N.O.P.Q.R.S.T.T.S.R.Q.P.O.N.M.L.K.q.J.I.H. .o.w.m.    ",
"    m.w.o.U.V.W.X.Y.Z.`. +.+++@+#+$+%+&+&+%+$+#+@+++.+ +`.Z.Y.X.W.V.U.o.w.m.    ",
"    m.*+=+-+;+>+,+'+)+!+~+{+]+^+/+(+_+:+:+_+(+/+^+]+{+~+!+)+'+,+>+;+-+=+*+m.    ",
"    <+[+}+|+1+2+3+4+5+6+%+7+8+8+9+0+a+b+b+a+0+9+8+8+7+%+6+5+4+3+2+1+|+}+[+<+    ",
"c+d+e+f+g+h+i+j+k+l+m+n+o+p+q+r+s+t+~ u+u+~ t+s+r+q+p+o+n+m+l+k+j+i+h+g+f+e+d+c+",
"v+w+x+y+z+A+/+B+C+n+D+q+E+F+G+H+I+J+K+L+L+K+J+I+H+G+F+E+q+D+n+C+B+/+A+z+y+x+w+v+",
"M+N+O+P+Q+R+S+T+U+V+W+X+Y+Z+`+ @.@+@@@#@#@@@+@.@ @`+Z+Y+X+W+V+U+T+S+R+Q+P+O+N+M+",
"$@%@&@n+*@q+=@-@;@>@,@J+'@L+)@@@#@#@#@!@!@#@#@#@@@)@L+'@J+,@>@;@-@=@q+*@n+&@%@$@",
"~@{@]@^@/@G+(@_@:@<@[@}@|@1@1@2@2@2@2@2@2@2@2@2@2@1@1@|@}@[@<@:@_@(@G+/@^@]@{@~@",
"3@,@4@5@6@7@8@9@0@a@b@c@d@d@d@d@c@c@c@c@c@c@c@c@d@d@d@d@c@b@a@0@9@8@7@6@5@4@,@3@",
"e@f@g@h@i@j@k@l@m@n@n@n@n@n@n@n@n@n@n@n@n@n@n@n@n@n@n@n@n@n@n@m@l@k@o@p@q@r@f@e@",
"    s@t@u@v@w@x@y@y@y@y@y@y@y@y@y@y@y@y@y@y@y@y@y@y@y@y@y@y@y@y@x@w@v@z@A@s@    ",
"      B@C@D@E@E@E@E@E@F@F@F@F@F@F@F@F@F@F@F@F@F@F@F@F@F@F@E@E@E@E@E@D@G@B@      ",
"      H@I@J@K@L@M@M@N@L@O@O@O@O@O@O@O@O@O@O@O@O@O@O@O@O@L@N@M@M@L@K@J@I@H@      ",
"      P@Q@R@S@T@U@U@T@V@W@W@W@W@W@W@W@W@W@W@W@W@W@W@W@W@V@T@U@U@T@S@R@Q@P@      ",
"      H@X@Y@Z@`@ # #.#+#@#####n@$#%#&#*#*#&#%#$#n@####@#+#.# # #`@Z@Y@X@H@      ",
"      =#-#;#>#,#'#)#,#!#~#{#]#^#/#(#_#:#:#_#(#/#^#]#{#~#!#,#)#'#,#>#;#-#=#      ",
"      <#[#}#|#1#2#3#4#5#6#l@7#8#9#0#a#b#b#a#0#9#8#7#l@6#5#4#3#2#1#|#}#[#<#      ",
"      c#d#Z@|#e#+@f#g#h#i#j#k#l#m#n#o#o#o#o#n#m#l#k#j#i#h#g#f#+@e#|#Z@d#c#      ",
"      c#p#k#q#r#s#t#u#v#j@l@w#x#y#z#A#A#A#A#z#y#x#w#l@j@v#u#t#s#r#q#k#p#c#      ",
"      H@B#C#D#E#F#G#E#H#I#J@J#K#L#z#A#A#A#A#z#L#K#J#J@I#H#E#G#F#E#D#C#B#H@      ",
"      H@[#M#N#O#P#Q#R#S#T#J@U#K#L#z#z#z#z#z#z#L#K#U#J@T#S#R#Q#P#O#N#M#[#H@      ",
"      c#d#V#W#X#Y#Z#X#`# $R@.$+$@$#@#$$$$$#$#@@$+$.$R@ $`#X#Z#Y#X#W#V#d#c#      ",
"      P@%$T@&$V@V@V@V@V@&$*$=$-$@@;$>$,$,$>$;$@@-$=$*$&$V@V@V@V@V@&$T@%$P@      ",
"      '$)$!$~${$]$^$/$($r#_$:$<$[$;#}$|$|$}$;#[$<$:$_$r#($/$^$]${$~$!$)$'$      ",
"        1$2$3$4$5$6$7$8$9$9$0$a$b$c$d$n@n@d$c$b$a$0$9$9$8$7$6$5$4$3$2$1$        ",
"        <.e$f$g$h$i$j$k$- - - l$m$n$o$L@L@o$n$m$l$- - - k$j$i$h$g$f$e$<.        ",
"          - 9$p$q$($r$s$      t$u$v$y@w$w$y@v$u$t$      s$r$($q$p$9$-           ",
"          - 9$r#x$y$z$s$      t$u$j@A$B$B$A$j@u$t$      s$z$y$x$r#9$-           "};
