/* XPM */
static char * trees_xpm[] = {
"40 40 777 2",
"  	c #BCBCBC",
". 	c #7C7C7C",
"+ 	c #ADA8A8",
"@ 	c #81383D",
"# 	c #7D1D27",
"$ 	c #916F71",
"% 	c #947375",
"& 	c #B73524",
"* 	c #E15222",
"= 	c #D74B22",
"- 	c #A93325",
"; 	c #852427",
"> 	c #776466",
", 	c #AAA4A5",
"' 	c #A09192",
") 	c #882727",
"! 	c #973226",
"~ 	c #96342B",
"{ 	c #AAA0A0",
"] 	c #B1B2B2",
"^ 	c #B0B1B1",
"/ 	c #B5B6B6",
"( 	c #466758",
"_ 	c #2F6441",
": 	c #2A6041",
"< 	c #818D88",
"[ 	c #7B7B7B",
"} 	c #7A7B7B",
"| 	c #747676",
"1 	c #6F6869",
"2 	c #844547",
"3 	c #C13C24",
"4 	c #C53E23",
"5 	c #AF3324",
"6 	c #992025",
"7 	c #BE3823",
"8 	c #E05122",
"9 	c #E25322",
"0 	c #E45422",
"a 	c #CF4523",
"b 	c #AE3B25",
"c 	c #A63826",
"d 	c #9A2926",
"e 	c #D34822",
"f 	c #E35322",
"g 	c #933333",
"h 	c #A59B9C",
"i 	c #6D7271",
"j 	c #266042",
"k 	c #1C5E3E",
"l 	c #6B8074",
"m 	c #708378",
"n 	c #1D5F3E",
"o 	c #428E2D",
"p 	c #68B229",
"q 	c #5EA929",
"r 	c #408435",
"s 	c #2A673E",
"t 	c #616C68",
"u 	c #696F6F",
"v 	c #5D6B65",
"w 	c #2E6A3E",
"x 	c #3F783D",
"y 	c #904832",
"z 	c #E35422",
"A 	c #DC4F22",
"B 	c #B73324",
"C 	c #D64B22",
"D 	c #DE5022",
"E 	c #B93423",
"F 	c #CC4523",
"G 	c #80595C",
"H 	c #69706E",
"I 	c #316A42",
"J 	c #4E992B",
"K 	c #4F9B2A",
"L 	c #418931",
"M 	c #1F7332",
"N 	c #47952A",
"O 	c #66B029",
"P 	c #69B429",
"Q 	c #58A329",
"R 	c #4D8D37",
"S 	c #498739",
"T 	c #307736",
"U 	c #5CA729",
"V 	c #69B428",
"W 	c #68B328",
"X 	c #346F39",
"Y 	c #9A4534",
"Z 	c #C03B23",
"` 	c #D94D22",
" .	c #E15322",
"..	c #9B3426",
"+.	c #70333A",
"@.	c #9B8C8E",
"#.	c #4F615C",
"$.	c #1F5D3F",
"%.	c #437E3C",
"&.	c #69B229",
"*.	c #64AE29",
"=.	c #3F8E2B",
"-.	c #5DA72A",
";.	c #69B329",
">.	c #63AE29",
",.	c #3E8D2B",
"'.	c #59A22C",
").	c #69513F",
"!.	c #A33726",
"~.	c #D24C23",
"{.	c #C94824",
"].	c #8C7476",
"^.	c #FCFCFC",
"/.	c #959B99",
"(.	c #2F574C",
"_.	c #297534",
":.	c #5BA32E",
"<.	c #47932B",
"[.	c #65AF29",
"}.	c #46932B",
"|.	c #67B129",
"1.	c #63AD29",
"2.	c #66AF2A",
"3.	c #3A723F",
"4.	c #335442",
"5.	c #9F5038",
"6.	c #DA4E22",
"7.	c #D74E23",
"8.	c #D94E22",
"9.	c #DF5122",
"0.	c #E05222",
"a.	c #D84D22",
"b.	c #931F26",
"c.	c #DCDEDD",
"d.	c #22673C",
"e.	c #2F812D",
"f.	c #5FA92A",
"g.	c #69B328",
"h.	c #447F3C",
"i.	c #63AA2D",
"j.	c #5DA330",
"k.	c #86533A",
"l.	c #DD5324",
"m.	c #BB3623",
"n.	c #942626",
"o.	c #962226",
"p.	c #C14324",
"q.	c #922026",
"r.	c #D54A23",
"s.	c #DB4F22",
"t.	c #A82E25",
"u.	c #F9F9F9",
"v.	c #B9C0BD",
"w.	c #1D6C36",
"x.	c #58A22A",
"y.	c #59A32A",
"z.	c #599E31",
"A.	c #5AA42B",
"B.	c #66B129",
"C.	c #5AA22C",
"D.	c #599F30",
"E.	c #68B329",
"F.	c #5FAA29",
"G.	c #1E6D36",
"H.	c #AD4F35",
"I.	c #D04623",
"J.	c #932526",
"K.	c #821B27",
"L.	c #791C27",
"M.	c #C53D23",
"N.	c #DA4D22",
"O.	c #327936",
"P.	c #57A22A",
"Q.	c #61AB2A",
"R.	c #4E9A2A",
"S.	c #317836",
"T.	c #1E673A",
"U.	c #478639",
"V.	c #1C663A",
"W.	c #377E34",
"X.	c #428A30",
"Y.	c #7E5A38",
"Z.	c #D45229",
"`.	c #D34823",
" +	c #C94223",
".+	c #A42C25",
"++	c #D84C22",
"@+	c #5FA929",
"#+	c #4B972B",
"$+	c #43912B",
"%+	c #61A72E",
"&+	c #519137",
"*+	c #307A33",
"=+	c #1E6C37",
"-+	c #1C5B3F",
";+	c #4B972A",
">+	c #64AF29",
",+	c #407E3A",
"'+	c #C2502F",
")+	c #D44923",
"!+	c #205841",
"~+	c #47942B",
"{+	c #45922B",
"]+	c #247B2D",
"^+	c #33822F",
"/+	c #2B6041",
"(+	c #45823B",
"_+	c #3D892F",
":+	c #68B228",
"<+	c #49863A",
"[+	c #C3502F",
"}+	c #9B2625",
"|+	c #1D5641",
"1+	c #267D2D",
"2+	c #297A30",
"3+	c #267930",
"4+	c #1D5A40",
"5+	c #1D5841",
"6+	c #1D603D",
"7+	c #44912B",
"8+	c #539D2C",
"9+	c #3E633A",
"0+	c #C6502D",
"a+	c #A02925",
"b+	c #697C73",
"c+	c #20683A",
"d+	c #1B5442",
"e+	c #1E5F3E",
"f+	c #1C5343",
"g+	c #287C2E",
"h+	c #42902B",
"i+	c #37872C",
"j+	c #539E2A",
"k+	c #9E4735",
"l+	c #D14723",
"m+	c #757777",
"n+	c #1B5542",
"o+	c #3D8532",
"p+	c #3A8B2A",
"q+	c #30812D",
"r+	c #60AA2A",
"s+	c #4D992B",
"t+	c #62AC29",
"u+	c #428B30",
"v+	c #7E5C38",
"w+	c #D55329",
"x+	c #D24823",
"y+	c #B9B9B9",
"z+	c #8A948F",
"A+	c #347A36",
"B+	c #33862B",
"C+	c #1D5940",
"D+	c #23643D",
"E+	c #4C982B",
"F+	c #1D653A",
"G+	c #A53F2F",
"H+	c #AD2A24",
"I+	c #CD4523",
"J+	c #DD4F22",
"K+	c #A3A6A5",
"L+	c #20663B",
"M+	c #287F2B",
"N+	c #297B30",
"O+	c #235D40",
"P+	c #3C8B2C",
"Q+	c #49952B",
"R+	c #58A32A",
"S+	c #424C42",
"T+	c #AA3529",
"U+	c #B43024",
"V+	c #B83424",
"W+	c #DD5022",
"X+	c #AC2824",
"Y+	c #942C26",
"Z+	c #DB5023",
"`+	c #FAFAFA",
" @	c #CBD0CE",
".@	c #286E39",
"+@	c #59A42A",
"@@	c #61AB29",
"#@	c #5CA62B",
"$@	c #3D8C2B",
"%@	c #519C2A",
"&@	c #2E822C",
"*@	c #5BA52A",
"=@	c #2A802C",
"-@	c #559F2A",
";@	c #58A02D",
">@	c #1C5D3F",
",@	c #962C2B",
"'@	c #A52324",
")@	c #A92524",
"!@	c #C84123",
"~@	c #B63224",
"{@	c #BE3923",
"]@	c #C14424",
"^@	c #731D28",
"/@	c #772228",
"(@	c #8A2A27",
"_@	c #AE2B24",
":@	c #ECEDED",
"<@	c #1D5E3E",
"[@	c #44922A",
"}@	c #38882C",
"|@	c #1F7034",
"1@	c #3B8332",
"2@	c #237B2D",
"3@	c #247D2C",
"4@	c #3C8B2B",
"5@	c #5AA42A",
"6@	c #5EA82A",
"7@	c #539A2F",
"8@	c #1E6F35",
"9@	c #1B5641",
"0@	c #559635",
"a@	c #237D2B",
"b@	c #1E5E3E",
"c@	c #802E2C",
"d@	c #751D27",
"e@	c #A22324",
"f@	c #A82324",
"g@	c #B93424",
"h@	c #B13E25",
"i@	c #C94624",
"j@	c #B53124",
"k@	c #B02D24",
"l@	c #B2B3B3",
"m@	c #1D663A",
"n@	c #509B2B",
"o@	c #4A8839",
"p@	c #2A5D42",
"q@	c #5A9D32",
"r@	c #286D3A",
"s@	c #216D37",
"t@	c #3E8C2B",
"u@	c #5FA530",
"v@	c #326641",
"w@	c #46813B",
"x@	c #4B8A38",
"y@	c #207A2C",
"z@	c #217B2C",
"A@	c #257E2B",
"B@	c #B33D29",
"C@	c #801F27",
"D@	c #761B27",
"E@	c #9F2125",
"F@	c #C63F23",
"G@	c #D04723",
"H@	c #B73224",
"I@	c #AD2924",
"J@	c #697874",
"K@	c #1C5940",
"L@	c #1E623D",
"M@	c #1A5641",
"N@	c #3F8A2F",
"O@	c #65AF2A",
"P@	c #508F37",
"Q@	c #285B42",
"R@	c #5A9D33",
"S@	c #307935",
"T@	c #1B5143",
"U@	c #256A39",
"V@	c #287B2B",
"W@	c #60A62F",
"X@	c #49932D",
"Y@	c #45932B",
"Z@	c #BB4229",
"`@	c #AB2A24",
" #	c #B33F25",
".#	c #A03226",
"+#	c #9E2125",
"@#	c #A72224",
"##	c #B83323",
"$#	c #AB2724",
"%#	c #C74023",
"&#	c #2D6141",
"*#	c #62AA2C",
"=#	c #4E982D",
"-#	c #247830",
";#	c #1F613D",
">#	c #3A882D",
",#	c #65AE2A",
"'#	c #4E962F",
")#	c #2C7E2E",
"!#	c #277534",
"~#	c #235743",
"{#	c #256D38",
"]#	c #30832C",
"^#	c #35862C",
"/#	c #56A12A",
"(#	c #1E6939",
"_#	c #8C4232",
":#	c #AB2925",
"<#	c #D34923",
"[#	c #C14024",
"}#	c #A02125",
"|#	c #CC4323",
"1#	c #CE4523",
"2#	c #E55422",
"3#	c #9E3026",
"4#	c #A72324",
"5#	c #2D6241",
"6#	c #418F2B",
"7#	c #247C2D",
"8#	c #257D2C",
"9#	c #2A7F2D",
"0#	c #277A30",
"a#	c #1C613C",
"b#	c #549932",
"c#	c #34862C",
"d#	c #408E2B",
"e#	c #67B12A",
"f#	c #4C8C37",
"g#	c #207134",
"h#	c #35862B",
"i#	c #3B872F",
"j#	c #297F2B",
"k#	c #216A39",
"l#	c #793F33",
"m#	c #CF4924",
"n#	c #DE5122",
"o#	c #BC4124",
"p#	c #8A2C27",
"q#	c #9C2625",
"r#	c #A72424",
"s#	c #A82424",
"t#	c #217035",
"u#	c #24792F",
"v#	c #257E2C",
"w#	c #257C2D",
"x#	c #206A39",
"y#	c #2C5F42",
"z#	c #40793D",
"A#	c #2B7237",
"B#	c #438F2C",
"C#	c #60AA29",
"D#	c #4C942F",
"E#	c #599C33",
"F#	c #316F3C",
"G#	c #247B2E",
"H#	c #CB4D29",
"I#	c #B73F25",
"J#	c #B94125",
"K#	c #B32F24",
"L#	c #B3B4B4",
"M#	c #1F673A",
"N#	c #20693A",
"O#	c #295C42",
"P#	c #6AB527",
"Q#	c #3D8136",
"R#	c #64AD2B",
"S#	c #6AB429",
"T#	c #529237",
"U#	c #3C733E",
"V#	c #4E972E",
"W#	c #297F2C",
"X#	c #A2302A",
"Y#	c #A62224",
"Z#	c #C74423",
"`#	c #C64023",
" $	c #A92624",
".$	c #A92424",
"+$	c #398332",
"@$	c #5CA629",
"#$	c #3D8731",
"$$	c #1C5542",
"%$	c #265843",
"&$	c #5DA131",
"*$	c #3F8D2B",
"=$	c #43902B",
"-$	c #348230",
";$	c #559D2E",
">$	c #277E2C",
",$	c #226F36",
"'$	c #1C5342",
")$	c #9F2D2A",
"!$	c #BF3A23",
"~$	c #BA4025",
"{$	c #8C1F26",
"]$	c #B42F24",
"^$	c #B02C24",
"/$	c #CD4423",
"($	c #1C5641",
"_$	c #55A02A",
":$	c #25693B",
"<$	c #1B5044",
"[$	c #245743",
"}$	c #34703C",
"|$	c #509B2A",
"1$	c #2C812C",
"2$	c #287F2C",
"3$	c #36862D",
"4$	c #60A72E",
"5$	c #2D6D3C",
"6$	c #277E2B",
"7$	c #20673A",
"8$	c #1B4D44",
"9$	c #504D41",
"0$	c #C43D23",
"a$	c #AF2C24",
"b$	c #BC4325",
"c$	c #741D28",
"d$	c #AF2B24",
"e$	c #AA2624",
"f$	c #9E2225",
"g$	c #246A3A",
"h$	c #1B4E44",
"i$	c #63AB2D",
"j$	c #5CA52C",
"k$	c #247A2F",
"l$	c #31842C",
"m$	c #36872C",
"n$	c #428F2B",
"o$	c #3D763D",
"p$	c #235B41",
"q$	c #4B962B",
"r$	c #2B802C",
"s$	c #32852C",
"t$	c #1F643C",
"u$	c #C33C23",
"v$	c #D74C22",
"w$	c #9F2625",
"x$	c #E55522",
"y$	c #B93523",
"z$	c #A32324",
"A$	c #509531",
"B$	c #1B5A3F",
"C$	c #36842F",
"D$	c #4F9A2B",
"E$	c #26693B",
"F$	c #247C2C",
"G$	c #2C802C",
"H$	c #529D2A",
"I$	c #217333",
"J$	c #912B26",
"K$	c #AC2924",
"L$	c #EEEFEF",
"M$	c #1E5C3F",
"N$	c #267E2C",
"O$	c #4D982B",
"P$	c #47912E",
"Q$	c #195A3F",
"R$	c #539337",
"S$	c #519B2B",
"T$	c #357A37",
"U$	c #44912A",
"V$	c #4F9A2A",
"W$	c #3B8B2B",
"X$	c #32842C",
"Y$	c #237C2C",
"Z$	c #237433",
"`$	c #1D5741",
" %	c #7F1F27",
".%	c #701C28",
"+%	c #A02725",
"@%	c #A22725",
"#%	c #801E27",
"$%	c #7C1D27",
"%%	c #A42324",
"&%	c #F8F8F8",
"*%	c #B9BFBD",
"=%	c #257930",
"-%	c #21772F",
";%	c #378330",
">%	c #287D2E",
",%	c #255E40",
"'%	c #206E36",
")%	c #1C5D3E",
"!%	c #3E8A2F",
"~%	c #408C2D",
"{%	c #257B2E",
"]%	c #20673B",
"^%	c #5F3735",
"/%	c #A62424",
"(%	c #811E27",
"_%	c #691B28",
":%	c #6C1B28",
"<%	c #881F26",
"[%	c #8E2026",
"}%	c #962125",
"|%	c #9A2225",
"1%	c #6A1B28",
"2%	c #733E44",
"3%	c #BABABA",
"4%	c #88908E",
"5%	c #267A2F",
"6%	c #307C32",
"7%	c #1D673A",
"8%	c #3B8A2B",
"9%	c #1E5E3F",
"0%	c #237532",
"a%	c #1C5143",
"b%	c #245641",
"c%	c #275142",
"d%	c #7C3733",
"e%	c #892027",
"f%	c #9B2225",
"g%	c #932126",
"h%	c #6E1C28",
"i%	c #6F1C28",
"j%	c #AA2424",
"k%	c #7A1D27",
"l%	c #681B28",
"m%	c #70373E",
"n%	c #D3CBCC",
"o%	c #828C89",
"p%	c #275249",
"q%	c #1B5043",
"r%	c #20653B",
"s%	c #1B4F44",
"t%	c #1C5442",
"u%	c #1F4D44",
"v%	c #523E39",
"w%	c #8A2227",
"x%	c #701D28",
"y%	c #8A1F26",
"z%	c #A02325",
"A%	c #721C28",
"B%	c #9C2225",
"C%	c #711C28",
"D%	c #992225",
"E%	c #982125",
"F%	c #998A8B",
"G%	c #D6CFD0",
"H%	c #838C8A",
"I%	c #6B7A76",
"J%	c #1E5D3F",
"K%	c #237234",
"L%	c #247731",
"M%	c #237631",
"N%	c #247730",
"O%	c #6A7975",
"P%	c #6E726F",
"Q%	c #7B1D27",
"R%	c #751C27",
"S%	c #731C27",
"T%	c #746062",
"U%	c #BBBBBB",
"V%	c #7D8784",
"W%	c #194D45",
"X%	c #184E44",
"Y%	c #184F44",
"Z%	c #1A4D44",
"`%	c #1B5D3F",
" &	c #1C5741",
".&	c #1C5B40",
"+&	c #1D5941",
"@&	c #B3B2B2",
"#&	c #625B5B",
"$&	c #5F454C",
"%&	c #5F2F3D",
"&&	c #5E2D3B",
"*&	c #6A1F2A",
"=&	c #672531",
"-&	c #61323E",
";&	c #662330",
">&	c #6E232A",
",&	c #681F2C",
"'&	c #766367",
")&	c #767575",
"!&	c #B2B3B2",
"~&	c #535C59",
"{&	c #4F4B4C",
"]&	c #4D3B41",
"^&	c #4B3C41",
"/&	c #304843",
"(&	c #4D3940",
"_&	c #314843",
":&	c #134E44",
"<&	c #234C44",
"[&	c #666363",
"}&	c #7F8483",
"|&	c #AEAFAF",
"1&	c #9A9A9A",
"2&	c #636363",
"3&	c #626262",
"4&	c #5C4950",
"5&	c #884746",
"6&	c #794344",
"7&	c #965048",
"8&	c #945749",
"9&	c #B16750",
"0&	c #7C4243",
"a&	c #BE7453",
"b&	c #743E42",
"c&	c #776A6E",
"d&	c #656565",
"e&	c #B8B8B8",
"f&	c #686868",
"g&	c #854546",
"h&	c #6C3B42",
"i&	c #884D47",
"j&	c #895448",
"k&	c #AE654F",
"l&	c #6E3E43",
"m&	c #B47152",
"n&	c #6A4043",
"o&	c #606060",
"p&	c #525252",
"q&	c #515151",
"r&	c #616161",
"s&	c #8B4847",
"t&	c #CB7C56",
"u&	c #D08058",
"v&	c #C07354",
"w&	c #944B48",
"x&	c #B76B51",
"y&	c #CD7D57",
"z&	c #9B524A",
"A&	c #666666",
"B&	c #797979",
"C&	c #7A7A7A",
"D&	c #676767",
"E&	c #C87A56",
"F&	c #CE7E57",
"G&	c #BF7253",
"H&	c #964D49",
"I&	c #B86D51",
"J&	c #CD7E57",
"K&	c #9A514A",
"L&	c #555555",
"M&	c #4C4C4C",
"N&	c #766A6E",
"O&	c #B96D52",
"P&	c #B0654F",
"Q&	c #A45A4C",
"R&	c #9F554B",
"S&	c #C77955",
"T&	c #6C6C6C",
"U&	c #959595",
"V&	c #979797",
"W&	c #BE7153",
"X&	c #B46950",
"Y&	c #A0574B",
"Z&	c #9D544A",
"`&	c #767676",
" *	c #838383",
".*	c #8A8687",
"+*	c #7A4F53",
"@*	c #954D49",
"#*	c #AE634F",
"$*	c #A3594C",
"%*	c #C97A56",
"&*	c #974F49",
"**	c #969696",
"=*	c #A4A4A4",
"-*	c #C9C9C9",
";*	c #888384",
">*	c #7C4E51",
",*	c #964E49",
"'*	c #B16650",
")*	c #A1584B",
"!*	c #C87956",
"~*	c #764347",
"{*	c #5F575A",
"]*	c #A0A0A0",
"^*	c #828282",
"/*	c #8C8889",
"(*	c #72474E",
"_*	c #6D3942",
":*	c #774243",
"<*	c #885147",
"[*	c #B9B7B8",
"}*	c #CACACA",
"|*	c #73474C",
"1*	c #703A42",
"2*	c #7B4444",
"3*	c #8E5448",
"4*	c #6F3F45",
"5*	c #5F595B",
"6*	c #939393",
"7*	c #A8A8A8",
"8*	c #9F9F9F",
"9*	c #908E8E",
"0*	c #8F8D8E",
"a*	c #605D5E",
"b*	c #9D9D9D",
"      . .                     . . . . . + @ # $ % # & * = - ; > , ' ) ! ~ {     ",
"    . . . ] ^ / / ^ ( _ : < ] [ . } | 1 2 3 4 5 6 7 8 9 9 0 a b c d e 0 f g h   ",
"  . . . i j k l m n o p q r s t u v w x x y z A B C 9 9 9 9 f z D E z 9 9 F G   ",
". . . H I J K L M N O p p P Q R S T U V W X Y z A Z D 9 9 9 9 9 * ` 9 9  ...+.@.",
"      #.$.%.&.*.=.-.p p p p p ;.>.,.;.p p '.).9 9 D  .9 9 9 9 9 9 9 9 z !.~.{.].",
"^.  /.(._.:.<.;.[.}.*.p p p p p |.1.p p 2.3.4.5.9 9 9 9 8 6.7.6.* 8.7.9.0.9 a.b.",
"^.c.d.e.f.p |.p p |.p p p p p p p p p g.h.i.j.k.l.9 9 9 = m.n.o.p.q.d r.9 9 s.t.",
"u.v.w.x.p p p p p p p p *.y.z.A.B.C.D.1.E.p F.G.H.9 9 9 9 0 I.J.K.L.M.z 9 9 9 N.",
"< O.,.P.;.p p ;.p p p p Q.R.S.T.U.V.W.F.p p *.X.Y.Z.9 9 9 9 z `. +.+++9 9 9 9 0 ",
": @+1.#+$+O %+&+g.p p p p ;.F.*+=+-+;+;.p p p >+,+'+9 9 9 9 9 9 * N.9 9 9 9 9 )+",
"!+~+p {+]+^+/+(+g.p p p p p p 1.-._+[.p p p p :+<+[+9 9 9 9 9 9 9 9 9 9 9 9 N.}+",
"|+1+2+3+4+5+6+7+O p p p p p p p p |.p p p p |.8+9+0+9 9 9 9 9 9 9 9 9 9 9 9 6.a+",
"b+c+d+e+f+g+h+i+j+;.p p p p p p p p p p p p @+w.k+` 9 9 9 9 9 9 9 9 9 9 9 9 9 l+",
"m+n+o+p+4+q+;.r+s+t+p p p p p p p p p p p p *.u+v+w+9 D x+z 9 9 9 9 9 f 9 9 9 I.",
"y+z+A+B+C+D+E+;.r+*.p p p p p p p p p p p p p Q F+G+9.6.H+x+9 9 9 9 z I+A 9 9 J+",
"^.K+L+M+N+O+P+;.|.O p t+Q+p p p p p p |.p p p R+c+S+T+U+V+W+9 9  .9 l+X+Y+Z+ .)+",
"`+ @.@+@@@#@$@;.%@&@-.*@=@-@E.p p p O {+;@|.p O ~+>@,@'@)@!@ .* ~@{@]@^@/@(@_@X+",
":@<@[@[.}@|@1@g.;.o+2@3@4@t+p p 5@6@7@8@9@0@5@E+a@b@c@d@e@f@x+9 )+g@z h@i@r.j@k@",
"l@|+m@u+n@o@p@q@V 0@r@s@a@4@@@|.s+t@u@v@w@x@y@z@A@b@B@C@D@E@F@G@X+!@f z H@I@f l+",
"J@K@L@M@N@O@P@Q@R@g.S@T@U@V@+@p $+,.V W@X@Y@5@E+a@b@Z@`@ #.#+#@# +z f z ##$#%#7 ",
"&#*#=#-#;#>#,#'#)#}@5@!#~#{#]#^#^#1.p ;.4@&@O /#(#_#:#<#0 [#}#|#9 ` 1#2#3#'@4#f@",
"5#t+t+6#7#8#9#0#a#b#c#d#e#f#g#h#*.O *.;.i#8#=@j#k#l#m#9 9 n#g@6.9 0.o#p#q#r#s#s#",
"b+t#t#u#v#w#x#y#z#A#B#|.p R+&@@@p C#D#E#F#G#8#8#A@b@H#9 9 * m.N.9 9 I#J#D K#s#s#",
"L#d+m@M#N#L+O#q@P#Q#R#p p S#7+Q.p ;.T#U#V#W#8#8#A@e+X#* z !@Y#l+0.Z#Y#`#0.D  $.$",
"b++$@$#$$$%$&$g.;.*$=$|.p x.&@@@p @@-$;$;.y.>$8#,$'$)$1#= x+!$q#~${$]$^$%#/$s#.$",
"($6#_$:$<$[$}$R.|$W#1$[.|.|$2$3$4$5$6$]#6@1.>$A@7$8$9$0$a$C 0 b$c$f@4 r.d$e$0$f$",
"$$3+g$h$!+i$j$k$>$l$^#m$n$[.|.o$p$2@q$J 1$r$s$]+t$8$h$u$`.%#v$* w$4#0$x$B e$y$z$",
"J@8$8$C+3+/#A$B$C$@@p P.n$D$*.e#E$F$#+S#4@G$H$I$$$h$h$J$r.K$_@N.)+r#I@U+$#s#r#s#",
"L$h$M$-#N$O$P$Q$R$S#S$T$1.$@U$[.V$8#W$|$X$8#Y$v#Z$`$h$ %X+q..%+%@%#%.$'@r#'@$%%%",
"&%*%`$e+=%}.q -%;%h+>%,%W$'%)%!%~%c+3@Y$8#{%]%A@,$'$^%/%s#.$(%_%:%<%.$[%}%|%1%2%",
"  3%4%h$($5%6%7%R.8%b@-#8#{%9%$$($b@A@c+0%u#a%b%c%d%e%%%f%.$g%h%i%|%.$j%k%l%m%n%",
"      o%p%q%4+u#2$5%b@{%u#A@r%s%t%-#8#8#M$q%u%v%w%x%y%z%A%B%}%i%_%C%D%E%C%F%G%^.",
"        H%I%h$J%K%5+,$L%4+-#M%$$h$5+N%L%`$O%P%_%l%_%1%Q%l%R%.%_%_%_%S%A%T%U%  ^.",
"          3%V%h$W%X%Y%t$Z%`% &h$h$X%.&+&V%y+@&#&$&%&&&*&=&-&;&>&,&%&'&#&)&U%    ",
"            !&~&{&]&^&Z%/&(&_&:&<&]&[&}&|&1&2&3&4&5&6&7&8&9&0&a&b&5&c&3&2&d&e&  ",
". . . . [ f&d&3&4&g&h&i&j&k&l&m&n&g&4&o&p&q&r&3&c&s&t&u&v&w&x&y&z&s&4&3&3&3&A&B&",
". . . C&D&3&3&3&4&s&E&F&G&H&I&J&K&s&4&L&M&M&q&r&N&s&O&J&P&Q&R&S&z&s&4&3&3&3&r&T&",
"  . . T&r&U&U&V&N&s&W&F&X&Y&Z&S&z&s&4&L&`&`&`& *.*+*@*#*$*%*#*#*&*+*.***U&U&U&=*",
"    . T&U&U&-***;*>*,*'*)*!*#*'*&*~*{* *`&]*`&^***/*(*_*:*<*:*_*(*[*}*U&U&U&U&=*",
"      T&U&-*-*-***.*|*1*2*3*2*1*4*5*3&6*7*]*8*^*U&U&9*0*0*0*a*a*9*-*-*U&U&U&b*3%"};
